<?xml version="1.0" encoding="utf-8"?>
<!-- Generator: Adobe Illustrator 15.0.0, SVG Export Plug-In . SVG Version: 6.00 Build 0)  -->
<!DOCTYPE svg PUBLIC "-//W3C//DTD SVG 1.1//EN" "http://www.w3.org/Graphics/SVG/1.1/DTD/svg11.dtd">
<svg version="1.1" id="Layer_1" xmlns="http://www.w3.org/2000/svg" xmlns:xlink="http://www.w3.org/1999/xlink" x="0px" y="0px"
	 width="512px" height="512.881px" viewBox="0 0 512 512.881" enable-background="new 0 0 512 512.881" xml:space="preserve">
<path fill="#939598" d="M256,0C114.759,0,0,114.759,0,256c0,105.048,62.676,195.09,153.6,234.813
	c-0.883-17.654,0-39.724,4.414-59.145c5.297-21.187,32.662-139.476,32.662-139.476s-7.945-16.772-7.945-40.607
	c0-37.959,22.069-66.207,49.434-66.207c22.952,0,34.428,17.655,34.428,38.841c0,22.952-15.007,58.262-22.952,90.924
	c-6.179,27.366,13.241,49.435,40.608,49.435c48.551,0,81.213-62.676,81.213-135.945c0-56.497-37.959-97.986-106.814-97.986
	c-77.683,0-126.233,58.262-126.233,122.703c0,22.069,6.179,37.958,16.772,50.317c4.414,5.297,5.297,7.945,3.531,14.124
	c-0.883,4.414-4.414,15.89-5.297,20.303c-1.766,6.179-7.062,8.828-13.241,6.179c-36.193-15.007-52.083-53.848-52.083-97.985
	c0-72.386,60.91-159.779,182.731-159.779c97.985,0,162.428,70.621,162.428,146.538c0,100.634-55.614,175.669-137.71,175.669
	c-27.366,0-53.848-15.007-62.676-31.779c0,0-15.007,59.146-17.655,70.621c-5.297,19.421-15.89,39.725-25.6,54.731
	c22.952,7.062,47.669,10.593,72.386,10.593c141.241,0,256-114.759,256-256S397.242,0,256,0"/>
<rect fill="none" width="512" height="512.881"/>
</svg>
