<svg id="transparency" xmlns="http://www.w3.org/2000/svg" width="120" height="120" class="homeService__icon" aria-labelledby="transparencyTitle"><title id="transparencyTitle">Our sources</title><g><circle fill="#f0f6fd" cx="59" cy="61" r="50"></circle><circle id="circle" fill="#fff" cx="60.5" cy="77.5" r="21.5"></circle><path id="medal" fill-rule="evenodd" fill="#0f2741" d="M61.838,54.407V51.324h6.847A1.618,1.618,0,0,0,70.4,49.612V43.275L83.75,22.725a1.556,1.556,0,0,0,0-1.712,1.3,1.3,0,0,0-1.369-1.027H68.685a1.525,1.525,0,0,0-1.37.856L60.126,31.8l-7.019-10.96a2.042,2.042,0,0,0-1.541-.856H37.872a1.8,1.8,0,0,0-1.541.856,1.556,1.556,0,0,0,0,1.713L49.684,43.1V49.44A1.618,1.618,0,0,0,51.4,51.153h6.847v3.083a23.923,23.923,0,1,0,25.677,23.8A23.493,23.493,0,0,0,61.838,54.407Zm7.7-31h9.586L67.658,40.878H58.072Zm-28.588,0H50.54L57.9,34.884l-3.937,5.994H52.423ZM53.279,47.728V44.3H66.974v3.425H53.279Zm6.847,51.034a20.551,20.551,0,1,1,20.542-20.55A20.607,20.607,0,0,1,60.126,98.762Z"></path><path id="star" fill-rule="evenodd" fill="#2f84e5" d="M73.944,73.761a1.423,1.423,0,0,0-1.187-1.005L64.9,71.607l-3.56-6.894A1.57,1.57,0,0,0,60,64a1.428,1.428,0,0,0-1.335.862L55.1,71.75,47.242,72.9A1.423,1.423,0,0,0,46.056,73.9a1.276,1.276,0,0,0,.445,1.436l5.637,5.314L50.8,88.266A1.346,1.346,0,0,0,51.4,89.7a1.636,1.636,0,0,0,1.632.144L60,86.255l6.972,3.59A1.7,1.7,0,0,0,68.6,89.7a1.346,1.346,0,0,0,.593-1.436l-1.335-7.611L73.5,75.341A1.586,1.586,0,0,0,73.944,73.761Zm-8.752,5.314a1.964,1.964,0,0,0-.445,1.292l1.038,5.457-5.044-2.585a1.142,1.142,0,0,0-1.335,0l-5.044,2.585L55.4,80.367a1.42,1.42,0,0,0-.445-1.292L50.8,75.2l5.637-.862a2.049,2.049,0,0,0,1.187-.718l2.522-4.883,2.522,4.883a1.177,1.177,0,0,0,1.187.718L69.494,75.2Z"></path></g></svg>